# xmcd
#
# Track frame offsets:
#	150
#	23364
#	37923
#	54684
#	72077
#	86900
#	101760
#	119048
#	130931
#	148909
#	166980
#	182244
#
# Disc length: 2581 seconds
#
# Revision: 0
# Processed by: cddbd v1.5.2PL0 Copyright (c) Steve Scherf et al.
# Submitted via: EasyCDDAExtractor 15.3.0.1
#
DISCID=ab0a130c
DTITLE=Jimmy Adler - Swing it Around
DYEAR=2008
DGENRE=Blues
TTITLE0=Jimmy Adler and Mike Sweeney - Liquor Got Loose
TTITLE1=Jimmy Adler - Think About You
TTITLE2=Jimmy Adler - Hambone
TTITLE3=Jimmy Adler - Smoke Signals
TTITLE4=Jimmy Adler - Down In Alabama
TTITLE5=Jimmy Adler - Fingertips
TTITLE6=Jimmy Adler and Mike Sweeney - Little Less Blues
TTITLE7=Jimmy Adler - Ooh-Wee-Baby
TTITLE8=Jimmy Adler - Let's You and I go out Tonight
TTITLE9=Jimmy Adler and Mike Sweeney - Saturday Nite Social Affair
TTITLE10=Jimmy Adler - Get Outta My Kitchen
TTITLE11=Jimmy Adler and Mike Sweeney - She Don't Dance
EXTD=
EXTT0=
EXTT1=
EXTT2=
EXTT3=
EXTT4=
EXTT5=
EXTT6=
EXTT7=
EXTT8=
EXTT9=
EXTT10=
EXTT11=
PLAYORDER=
